<?xml version="1.0" encoding="UTF-8" standalone="no"?>
<!-- Created with Inkscape (http://www.inkscape.org/) -->

<svg
   xmlns:dc="http://purl.org/dc/elements/1.1/"
   xmlns:cc="http://creativecommons.org/ns#"
   xmlns:rdf="http://www.w3.org/1999/02/22-rdf-syntax-ns#"
   xmlns:svg="http://www.w3.org/2000/svg"
   xmlns="http://www.w3.org/2000/svg"
   xmlns:sodipodi="http://sodipodi.sourceforge.net/DTD/sodipodi-0.dtd"
   xmlns:inkscape="http://www.inkscape.org/namespaces/inkscape"
   width="210mm"
   height="297mm"
   viewBox="0 0 744.09448819 1052.3622047"
   id="svg2"
   version="1.1"
   inkscape:version="0.91 r"
   sodipodi:docname="logo.svg">
  <defs
     id="defs4" />
  <sodipodi:namedview
     id="base"
     pagecolor="#ffffff"
     bordercolor="#666666"
     borderopacity="1.0"
     inkscape:pageopacity="0.0"
     inkscape:pageshadow="2"
     inkscape:zoom="0.7"
     inkscape:cx="204.17464"
     inkscape:cy="879.03163"
     inkscape:document-units="px"
     inkscape:current-layer="g4195"
     showgrid="false"
     inkscape:window-width="1366"
     inkscape:window-height="682"
     inkscape:window-x="0"
     inkscape:window-y="24"
     inkscape:window-maximized="1" />
  <metadata
     id="metadata7">
    <rdf:RDF>
      <cc:Work
         rdf:about="">
        <dc:format>image/svg+xml</dc:format>
        <dc:type
           rdf:resource="http://purl.org/dc/dcmitype/StillImage" />
        <dc:title></dc:title>
      </cc:Work>
    </rdf:RDF>
  </metadata>
  <g
     inkscape:label="Layer 1"
     inkscape:groupmode="layer"
     id="layer1">
    <text
       xml:space="preserve"
       style="font-style:normal;font-weight:normal;font-size:160px;line-height:125%;font-family:Sans;letter-spacing:0px;word-spacing:0px;fill:#000000;fill-opacity:1;stroke:none;stroke-width:1px;stroke-linecap:butt;stroke-linejoin:miter;stroke-opacity:1"
       x="31.428589"
       y="232.36221"
       id="text4136"
       sodipodi:linespacing="125%"><tspan
         sodipodi:role="line"
         id="tspan4138"
         x="31.428589"
         y="232.36221"
         style="font-style:normal;font-variant:normal;font-weight:normal;font-stretch:normal;font-family:Ubuntu;-inkscape-font-specification:Ubuntu"><tspan
           style="fill:#1a1a1a"
           id="tspan4142">he</tspan><tspan
           style="fill:#ff6600"
           id="tspan4140">Forge</tspan></tspan></text>
    <g
       id="g4195"
       transform="matrix(0.27777886,0,0,0.27777886,155.9535,57.260877)">
      <g
         id="g4199"
         transform="matrix(0.96658013,0,0,0.96658013,43.354122,16.181598)">
        <g
           id="g4203"
           transform="matrix(0.81605872,0,0,0.81605872,-157.6639,117.3686)">
          <path
             transform="matrix(0,1,-1,0,0,0)"
             style="opacity:1;fill:#1a1a1a;fill-opacity:1;stroke:none;stroke-width:1;stroke-opacity:1"
             d="m 245.81107,592.95871 43.88596,-10.10153 328.37943,0 c 11.08,0 20,8.92 20,20 l 0,42.85714 c 0,11.08 -8.92,20 -20,20 l -329.38958,0 -43.88597,-10.10153 c -10.79765,-2.48536 -21.01015,1.18153 -21.01015,-9.89847 l 0,-42.85714 c 0,-11.08 11.22265,-7.41311 22.02031,-9.89847 z"
             id="rect4182"
             inkscape:connector-curvature="0"
             sodipodi:nodetypes="scsssscssss" />
          <path
             id="rect4184"
             d="m -837.14258,72.361328 c -11.08,0 -20,8.92 -20,20 l 0,137.144532 c 0,11.08 8.92,20 20,20 l 91.42774,0 c 11.08,0 20,-8.92 20,-20 l 0,-18.78516 a 125.71429,78.571426 0 0 0 97.14257,28.78516 125.71429,78.571426 0 0 0 91.42969,-24.78711 l 0,14.78711 c 0,11.08 8.92,20 20,20 l 31.42774,0 c 11.08,0 20,-8.92 20,-20 l 0,-137.144532 c 0,-11.08 -8.92,-20 -20,-20 l -31.42774,0 c -11.08,0 -20,8.92 -20,20 l 0,14.718752 a 125.71429,78.571426 0 0 0 -91.42969,-24.718752 125.71429,78.571426 0 0 0 -97.14257,28.771482 l 0,-18.771482 c 0,-11.08 -8.92,-20 -20,-20 l -91.42774,0 z"
             style="opacity:1;fill:#1a1a1a;fill-opacity:1;stroke:none;stroke-width:1;stroke-opacity:1"
             inkscape:connector-curvature="0" />
        </g>
      </g>
    </g>
  </g>
</svg>
